<svg version="1.1" id="Layer_1" xmlns="http://www.w3.org/2000/svg" x="0" y="0" viewBox="0 0 374.2 294.8" xml:space="preserve"><style>.st1{fill:#00f;fill-rule:evenodd;clip-rule:evenodd}.st4{fill:#fff}.st5{fill-rule:evenodd;clip-rule:evenodd;fill:#f02137}</style><path d="M11.2 3.3c2.1.2 3.1.6 3.1 1.4l.1.6c-.4.3-.9.5-1.4.5h-2c-.7 0-1 .1-1 .3.1 1 .3 3 .4 6.3l.5 1.6-.1.4v.7c0 .1-.3.2-.9.2h-.6c-1 0-1.6-.4-1.8-1.3-.2-.9-.4-3-.6-6.2-.2-.6-.3-.9-.4-.9-.6.2-1.2.3-1.8.3-1.2-.1-1.9-.4-1.9-1v-.3c0-.7.6-1.1 1.8-1.3 2.4-.9 4.3-1.3 5.8-1.3h.8zM19.1.9c.6.1.9.4.9.8l-.3 1.6c1.4 1.5 2.4 3.5 2.9 5.8 1.5.5 2.3 1 2.3 1.5v.1c0 .5-.4.8-1.3.8h-.1v.1c0 .3.3 1.3.8 3l.1.6v.1c0 .1-.2.2-.7.3-1 0-1.9-1.5-2.7-4.4l-1.4-.1H19c-1.1 0-1.7.2-1.7.6l-.8 2.8c-.3.5-.6.8-.6.8h-.3c-.7 0-1-.3-1-.8l-.2-.5v-.5c0-.8.5-2.8 1.6-6l1.5-5.3c0-.7.2-1 .6-1 0-.1.2-.1.5-.1h.5zm-1 8c.2-.1.7-.1 1.3-.1h.8c-.5-1.5-.9-2.4-1.3-2.6l-.8 2.7zm12.2-6.5c.3 0 .9.5 2 1.4l-.1.4.1.6c-.5.6-1.4 1.4-2.7 2.3-.3.4-.5.7-.6 1.1.2.5 1.8 1.3 4.7 2.5.9.7 1.3 1.4 1.3 2.1 0 .6-.8 1.3-2.3 2.3-1.1.4-2.1.6-3 .6-1.6 0-2.5-.5-2.7-1.4v-.1l1.1-1.1 2 .2c.6 0 1-.2 1.3-.5-.2-.2-1.7-.9-4.3-2.2-1.1-.8-1.7-1.8-1.7-3v-.7c0-.3.2-.7.6-1.1.4-1.1 1.3-2.1 2.6-2.9.6-.3 1.1-.5 1.3-.5h.4zm6.8 1.2c.9 0 1.4.7 1.6 2.1.2 1.6.4 2.8.4 3.7h.1c2.8-3.7 4.7-5.6 5.7-5.6l1.1.6c0 .9-1.1 2.5-3.4 4.7v.1c1.1 1.7 2.1 3 3.2 3.7.3.1.5.2.5.4v.7c0 .7-.5 1.1-1.4 1.2-1.2 0-2.5-.9-3.9-2.8h-.1c-.2.4-.5 1.3-.7 2.6l-.2.3-.1.1H38c-1.1-.6-1.6-1.6-1.6-3.1-.4-3.8-.8-6.2-1.1-7.1V5c.4-1 .9-1.4 1.5-1.4h.3zm14.3-1.2c.3 0 .9.5 2 1.4l-.1.4.1.6c-.5.6-1.4 1.4-2.7 2.3-.3.4-.5.7-.6 1.1.2.5 1.8 1.3 4.7 2.5.9.7 1.3 1.4 1.3 2.1 0 .6-.8 1.3-2.3 2.3-1.1.4-2.1.6-3 .6-1.6 0-2.5-.5-2.7-1.4v-.1l1.1-1.1 2 .2c.6 0 1-.2 1.3-.5-.2-.2-1.7-.9-4.3-2.2-1.1-.8-1.7-1.8-1.7-3v-.7c0-.3.2-.7.6-1.1.4-1.1 1.3-2.1 2.6-2.9.6-.3 1.1-.5 1.3-.5h.4zM60.6 9c-.6 1-1.3 1.5-2.2 1.5-1.1-.1-1.6-.5-1.6-1.2v-.6c.2-1 .6-1.4 1.1-1.4h.9c1.2.2 1.8.8 1.8 1.7zm-.7 2.9c.7 0 1.1.3 1.4 1 .1 0 .2.2.3.6l-.3.3.1.2c-.5.8-1 1.1-1.4 1.1-1.6-.2-2.4-.7-2.4-1.5v-.2c.3-1 .9-1.5 2-1.5h.3zM11.2 86.5c2.1.2 3.1.6 3.1 1.4l.1.6c-.4.3-.9.5-1.4.5h-2c-.7 0-1 .1-1 .3.1 1 .3 3 .4 6.3l.5 1.6-.1.4v.7c0 .1-.3.2-.9.2h-.6c-1 0-1.6-.4-1.8-1.3-.2-.9-.4-3-.6-6.2-.1-.6-.3-.9-.4-.9-.6.2-1.1.4-1.8.4-1.2-.1-1.9-.5-1.9-1.1V89c0-.7.6-1.1 1.8-1.3 2.4-.9 4.3-1.3 5.7-1.3h.9zm5.2.5c.7 0 1.1.4 1.1 1.1.1.3.2 1 .3 2.2l-.1 4.5.1 2.1c0 .5-.3.8-.8.8h-.1c-1.1 0-1.6-.3-1.6-.9-.4-.6-.6-3.5-.6-8.7.4-.7.9-1.1 1.4-1.1h.3zm4.8-.1c.8.1 1.2.4 1.2.7.2 1.1.6 1.7 1.1 1.7.5.2 1 .4 1.7.4 1.4 0 2.3-.4 2.5-1.3.5-.6.8-.9 1-.9 1.1.3 1.7.7 1.7 1.4l.1.5-.7 4.6c0 1.2.4 2 1.3 2.4v.1c-.4 1.1-.8 1.7-1.3 1.7l-.5.1c-1.6 0-2.4-1.5-2.4-4.5v-1.4h-2.2c-.7 0-1.2-.1-1.7-.3V92c.3 1.4.4 2.8.4 4 0 1.5-.2 2.3-.7 2.3l-.2.2h-.9c-1.2 0-1.8-.6-1.8-1.8v-4c0-1.1-.2-1.9-.7-2.4v-.6l.4-1.8c.5-.6.8-.9 1-.9l.4-.1h.3zm20.8.2c1.3 0 1.9.2 1.9.5 0 .1.1.3.4.4v.1c0 .4-1.1.8-3.3 1.3-3.2.5-5.1.7-5.6.7l-.2-.1c0 .7.1 1.1.3 1.1l1.3.2h.6l4.4-.3c.6 0 .8.3.8.8v.1c0 1-1.3 1.7-3.8 2.1l-2.3-.2c-.9 0-1.4.2-1.4.6V96h1.2l4.5-.6h.4c.8 0 1.3.2 1.6.7v.1c-2 1.5-4.3 2.3-7 2.3-2.2 0-3.2-.4-3.2-1.3-.2-.3-.2-.7-.2-1.2v-.3l.2-3.6c0-.5-.2-1.1-.5-2v-.2c0-.2.2-.8.7-1.8 0-.3.1-.5.3-.5l.8-.4h.1c.6.1 1.3.2 2 .2l5.1-.4h.9zm5.6 5c-.6 1-1.3 1.5-2.2 1.5-1.1-.1-1.6-.5-1.6-1.2v-.5c.2-1 .6-1.4 1.1-1.4h.9c1.2.2 1.8.7 1.8 1.6zm-.8 3c.7 0 1.1.3 1.4 1 .1 0 .2.2.3.6l-.2.3.1.2c-.5.8-1 1.1-1.4 1.1-1.6-.2-2.4-.7-2.4-1.5v-.2c.3-1 .9-1.5 2-1.5h.2zm-36.7 87.2c.3 0 .9.5 2 1.4l-.1.4.1.6c-.5.6-1.4 1.4-2.7 2.3-.3.4-.5.7-.6 1.1.2.5 1.8 1.3 4.7 2.5.9.7 1.3 1.4 1.3 2.1 0 .6-.8 1.3-2.3 2.3-1.1.4-2.1.6-3 .6-1.6 0-2.5-.5-2.7-1.4v-.1l1.1-1.1 2 .2c.6 0 1-.2 1.3-.5-.2-.2-1.7-.9-4.3-2.2-1.1-.8-1.7-1.8-1.7-3v-.6c0-.3.2-.7.6-1.1.4-1.1 1.3-2.1 2.6-2.9.6-.3 1.1-.5 1.3-.5h.4zm10.7 1.5c1.2 0 2.6.8 4.2 2.3.3.3.4.7.5 1.3.3.4.5.9.6 1.4 0 1-.9 2.5-2.6 4.5-1 .8-2 1.1-2.9 1.1h-.1c-.8 0-1.8-.6-2.9-1.7-1.1-1.6-1.8-3.6-2.1-6.2 0-1.1.7-1.9 2.2-2.4 1.2-.3 2.2-.4 2.9-.4h.2zm-.1 7.7l1.6-1.1c.4-.5.6-1 .6-1.5 0-1.1-.6-2.1-1.7-2.9h-1.7c-.2.3-.4.5-.5.5l-.1.1v.9c-.1 1.6.5 3 1.8 4zm9.9-6l-.4 5.2.1.9c1.8-.3 3-.5 3.6-.5h.6c.7 0 1.4.2 1.9.6l-.1.7v.3c0 .5-1.4 1-4.1 1.5-.5.3-.7.4-.7.5l-.5-.1h-.1l-.9.2c-.8 0-1.6-.4-2.5-1.3-.3-.8-.4-1.6-.4-2.4v-.9l.2-4-.1-1.8c0-.7.5-1.2 1.4-1.3h.7c.8 0 1.2.8 1.3 2.4zm9.8 4.2c.3 1.1.7 1.9 1.2 2.4h.1c.5-.4.7-1.1.7-1.9v-.2l-.4-3.8v-.2c.4-.4.7-.6 1-.6h.1c1.4.9 2.2 2.6 2.2 5.1l-.1.3.1.6v.1c-.2.3-.4.6-.4.9-.8 1.7-1.9 2.6-3.4 2.6-2.2 0-3.6-2.1-4.5-6.2l-1.1-3v-.3c.2-.9.7-1.3 1.3-1.3h.6c1.2-.1 2.1 1.8 2.6 5.5zm14.5-6.5c2.1.2 3.1.6 3.1 1.4l.1.6c-.3.3-.8.5-1.4.5h-2c-.7 0-1 .1-1 .3.1 1 .3 3 .4 6.3l.5 1.6-.1.4v.7c0 .1-.3.2-.9.2H53c-1 0-1.6-.4-1.8-1.3-.2-.9-.4-3-.6-6.2-.1-.6-.3-.9-.4-.9-.6.2-1.1.4-1.8.4-1.2-.1-1.9-.5-1.9-1.1v-.3c0-.7.6-1.1 1.8-1.3 2.4-.9 4.3-1.3 5.7-1.3h.9zm5.2.6c.7 0 1.1.4 1.1 1.1.1.3.2 1 .3 2.2l-.1 4.5.1 2.1c0 .5-.3.8-.8.8h-.1c-1.1 0-1.6-.3-1.6-.9-.4-.6-.6-3.5-.6-8.7.4-.7.9-1.1 1.4-1.1h.3zm8.2 0c1.2 0 2.6.8 4.2 2.3.3.3.4.7.5 1.3.3.4.5.9.6 1.4 0 1-.9 2.5-2.6 4.5-1 .8-2 1.1-2.9 1.1H68c-.8 0-1.8-.6-2.9-1.7-1.1-1.6-1.8-3.6-2.1-6.2 0-1.1.7-1.9 2.2-2.4 1.2-.3 2.2-.4 2.9-.4h.2zm-.1 7.7l1.6-1.1c.4-.5.6-1 .6-1.5 0-1.1-.6-2.1-1.7-2.9H67c-.2.3-.4.5-.5.5l-.1.1v.9c-.1 1.6.5 3 1.8 4zm8.6-8.8c1 .2 1.5.5 1.5.9.6.3 1.5 2 2.7 5.1l.7 1.8c.2.2.4.6.8 1.2.4.5.7.8.9.8v-.1c.2-.5.4-1 .4-1.5v-.2l-.5-4.2v-.7c0-.7.2-1.2.5-1.4l1.2-.2h.4c.3.3.4.5.4.8v.3l-.1.1v.1c.3 0 .5.7.6 2 .3 1.1.5 2.3.5 3.3v.7c0 1.8-.7 3-2.1 3.4 0 .1-.5.2-1.4.4h-.4c-1.3 0-2.6-1.1-3.8-3.4H79l-.1.5v1c0 .7-.2 1.1-.7 1.4l-.8-.1-1.1.1c-.4-.2-.6-.6-.6-1.1v-.2l.1-2.4-.6-6.6v-.4c.1-.9.6-1.4 1.4-1.4h.2zm14.8 6.2c-.6 1-1.3 1.5-2.2 1.5-1.1-.1-1.6-.5-1.6-1.2v-.5c.2-1 .6-1.4 1.1-1.4h.9c1.3.1 1.8.7 1.8 1.6zm-.7 2.9c.7 0 1.1.3 1.4 1 .1 0 .2.2.3.6l-.3.3.1.2c-.5.8-1 1.1-1.4 1.1-1.6-.2-2.4-.7-2.4-1.5v-.2c.3-1 .9-1.5 2-1.5h.3z" fill="#f02137"/><path class="st1" d="M31.7 25.4c-3.7-1.5-5.8-3.4-10.3-.2-3.1 2.2-6.2 6-7.1 9.4-4.8 17.9 22.9 25.1 26.6 8.1 1.4-6.8-3.1-14.7-9.2-17.3zm73 8c-1.5 4-3.4 6.4-.1 11.2 2.3 3.4 6.2 6.6 9.7 7.6 18.4 5 25.4-25.1 7.9-28.9-6.8-1.5-14.9 3.4-17.5 10.1zM67.9 51.7c8 3.3 16.5-2 18.6-9.8 5.2-19.1-24.3-26.7-28.3-8.6-1.6 7.2 3.1 15.7 9.7 18.4zm181.6-1.3c3.7 1.5 5.8 3.4 10.3.2 3.1-2.2 6.2-6 7.1-9.4 4.8-17.9-22.9-25.1-26.6-8.1-1.4 6.7 3 14.7 9.2 17.3zm-73.1-8.1c1.5-4 3.4-6.4.1-11.2-2.3-3.4-6.2-6.6-9.7-7.6-18.4-5-25.4 25.1-7.9 28.9 6.9 1.6 15-3.3 17.5-10.1zM213.3 24c-8-3.3-16.5 2-18.6 9.8-5.2 19.1 24.3 26.7 28.3 8.6 1.6-7.1-3.1-15.6-9.7-18.4zm97.3 18.3c1.5-4 3.4-6.4.1-11.2-2.3-3.4-6.2-6.6-9.7-7.6-18.4-5-25.4 25.1-7.9 28.9 6.9 1.6 15-3.3 17.5-10.1zM347.5 24c-8-3.3-16.5 2-18.6 9.8-5.2 19.1 24.3 26.7 28.3 8.6 1.6-7.1-3.1-15.6-9.7-18.4z"/><path d="M9.1 109.9l5.4.7 26-.3h2.4c2.2 0 3.4.4 3.4 1.3l.2.7c.8 1.2 1.1 2.4 1.1 3.7.4 1.2.8 23.4.9 29.1.1 2.3-.7 3.9-2.1 4.8-.3.3-.8.5-1.6.6h-4l-26-.3-5.7.8h-.2l-1.7.5c-.5-.5-.9-1-1.2-1.6-.2-.2-.4-.4-.6-.7v-.3c-.5-1-.7-2-.7-3.1-.4-1.3-.8-24.4-.9-30.4-.1-3.3 1.3-5.2 3.9-5.7l1.4.2zm1.2 34.2h.8c6 .1 29.1.5 30.4.9h.3l.5-3.5-.3-25v-.7h-.8c-1.3.4-24.4.8-30.4.9h-.4l-.3 2.5.2 24.9zm122.9-35.2l-31.5.4h-2.4c-2.2 0-3.4.4-3.4 1.3l-.2.7c-.8 1.2-1.1 2.4-1.1 3.7-.4 1.2-.8 23.4-.9 29.1-.1 2.3.7 3.9 2.1 4.8.3.3.8.5 1.6.6h4c8.9-.1 36.3 3.9 36.3-4.7.4-1.3.8-24.4.9-30.4.1-3.3-1.3-5.2-3.9-5.7l-1.5.2zm-1.3 34.2h-.8c-6 .1-29.1.5-30.4.9h-.3l-.5-3.5.3-25v-.7h.8c1.3.4 24.4.8 30.4.9h.4l.3 2.5-.2 24.9zm8.2 2.5l.7-5.1-.3-24.2v-2.2c0-2.1.4-3.1 1.3-3.1l.7-.2c1.2-.7 2.4-1.1 3.7-1.1 1.2-.4 23.4-.7 29.1-.9 2.3 0 3.9.6 4.8 2 .3.2.5.7.6 1.5v3.7c0 3.7 1.9 33.1-1.6 33.1-1 .5-2 .7-3.1.7-1.3.4-24.4.7-30.4.9-3.3.1-5.2-1.2-5.7-3.6l.2-1.5zm34.2-1.1v-.8c.1-5.6.5-27.1.9-28.3v-.3l-3.5-.5-25 .3h-.7v.8c.4 1.2.8 22.7.9 28.3v.4l2.5.3 24.9-.2zm-125.2 1.6l.7-5.1-.3-24.2v-2.2c0-2.1.4-3.1 1.3-3.1l.7-.2c1.2-.7 2.4-1.1 3.7-1.1 1.2-.4 23.4-.7 29.1-.9 2.3 0 3.9.6 4.8 2 .3.2.5.7.6 1.5v3.7c0 3.7 1.9 33.1-1.6 33.1-1 .5-2.1.7-3.1.7-1.3.4-24.4.7-30.4.9-3.3.1-5.2-1.2-5.7-3.6l.2-1.5zm34.2-1.2v-.8c.1-5.6.5-27.1.9-28.3v-.3l-3.5-.5-25 .3H55v.8c.4 1.2.8 22.7.9 28.3v.4l2.5.3 24.9-.2zm239.6-36l5.4.7 26-.3h2.4c2.2 0 3.4.4 3.4 1.3l.2.7c.8 1.2 1.1 2.4 1.1 3.7.4 1.2.8 23.4.9 29.1.1 2.3-.7 3.9-2.1 4.8-.3.3-.8.5-1.6.6h-4l-26-.3-5.7.8h-.2l-1.7.5c-.5-.5-.9-1-1.2-1.6-.2-.2-.4-.4-.6-.7v-.3c-.5-1-.7-2-.7-3.1-.4-1.3-.8-24.4-.9-30.4-.1-3.3 1.3-5.2 3.9-5.7l1.4.2zm1.2 34.2h.8c6 .1 29.1.5 30.4.9h.3l.5-3.5-.3-25v-.7h-.8c-1.3.4-24.4.8-30.4.9h-.4l-.3 2.5.2 24.9zm-91.1 8.5l31.5-.4h2.4c2.2 0 3.4-.4 3.4-1.3l.2-.7c.8-1.2 1.1-2.4 1.1-3.7.4-1.2.8-23.4.9-29.1.1-2.3-.7-3.9-2.1-4.8-.3-.3-.8-.5-1.6-.6h-4c-8.9.1-36.3-3.9-36.3 4.7-.4 1.3-.8 24.4-.9 30.4-.1 3.3 1.3 5.2 3.9 5.7l1.5-.2zm1.2-34.3h.8c6-.1 29.1-.5 30.4-.9h.3l.5 3.5-.3 25v.7h-.8c-1.3-.4-24.4-.8-30.4-.9h-.4l-.3-2.5.2-24.9zm-8.1-2.5l-.7 5.1.3 24.2v2.2c0 2.1-.4 3.1-1.3 3.1l-.7.2c-1.2.7-2.4 1.1-3.7 1.1-1.2.4-23.4.7-29.1.9-2.3 0-3.9-.6-4.8-2-.3-.2-.5-.7-.6-1.5v-3.7c0-3.7-1.9-33.1 1.6-33.1 1-.5 2.1-.7 3.1-.7 1.3-.4 24.4-.7 30.4-.9 3.3-.1 5.2 1.2 5.7 3.6l-.2 1.5zm-34.3 1.2v.8c-.1 5.6-.5 27.1-.9 28.3v.3l3.5.5 25-.3h.7v-.8c-.4-1.2-.8-22.7-.9-28.3v-.4l-2.5-.3-24.9.2zm125.3-1.6l-.7 5.1.3 24.2v2.2c0 2.1-.4 3.1-1.3 3.1l-.7.2c-1.2.7-2.4 1.1-3.7 1.1-1.2.4-23.4.7-29.1.9-2.3.1-3.9-.6-4.8-2-.3-.2-.5-.7-.6-1.5V144c0-3.7-1.9-33.1 1.6-33.1 1-.5 2-.7 3.1-.7 1.3-.4 24.4-.7 30.4-.9 3.3-.1 5.2 1.2 5.7 3.6l-.2 1.5zm-34.3 1.2v.8c-.1 5.6-.5 27.1-.9 28.3v.3l3.5.5 25-.3h.7v-.8c-.4-1.2-.8-22.7-.9-28.3v-.4l-2.5-.3-24.9.2zM9.1 206.7l5.4.7 26-.3h2.4c2.2 0 3.4.4 3.4 1.3l.2.7c.8 1.2 1.1 2.4 1.1 3.7.4 1.2.8 23.4.9 29.1.1 2.3-.7 3.9-2.1 4.8-.3.3-.8.5-1.6.6h-4l-26-.3-5.7 1h-.2l-1.7.5c-.5-.5-.9-1-1.2-1.6-.2-.2-.4-.4-.6-.7v-.3c-.5-1-.7-2-.7-3.1-.4-1.3-.8-24.4-.9-30.4-.1-3.3 1.3-5.2 3.9-5.7h1.4zm1.2 34.2h.8c6 .1 29.1.5 30.4.9h.3l.5-3.5-.3-25v-.7h-.8c-1.3.4-24.4.8-30.4.9h-.4l-.3 2.5.2 24.9zm122.9-35.2l-31.5.4h-2.4c-2.2 0-3.4.4-3.4 1.3l-.2.7c-.8 1.2-1.1 2.4-1.1 3.7-.4 1.2-.8 23.4-.9 29.1-.1 2.3.7 3.9 2.1 4.8.3.3.8.5 1.6.6h4c8.9-.1 36.3 3.9 36.3-4.7.4-1.3.8-24.4.9-30.4.1-3.3-1.3-5.2-3.9-5.7l-1.5.2zm-1.3 34.2h-.8c-6 .1-29.1.5-30.4.9h-.3l-.5-3.5.3-25v-.7h.8c1.3.4 24.4.8 30.4.9h.4l.3 2.5-.2 24.9zm8.2 2.5l.7-5.1-.3-24.2v-2.2c0-2.1.4-3.1 1.3-3.1l.7-.2c1.2-.7 2.4-1.1 3.7-1.1 1.2-.4 23.4-.7 29.1-.9 2.3 0 3.9.6 4.8 2 .3.2.5.7.6 1.5v3.7c0 3.7 1.9 33.1-1.6 33.1-1 .5-2 .7-3.1.7-1.3.4-24.4.7-30.4.9-3.3.1-5.2-1.2-5.7-3.6l.2-1.5zm34.2-1.1v-.8c.1-5.6.5-27.1.9-28.3v-.3l-3.5-.5-25 .3h-.7v.8c.4 1.2.8 22.7.9 28.3v.4l2.5.3 24.9-.2zm-125.2 1.6l.7-5.1-.3-24.2v-2.2c0-2.1.4-3.1 1.3-3.1l.7-.2c1.2-.7 2.4-1.1 3.7-1.1 1.2-.4 23.4-.7 29.1-.9 2.3 0 3.9.6 4.8 2 .3.2.5.7.6 1.5v3.7c0 3.7 1.9 33.1-1.6 33.1-1 .5-2.1.7-3.1.7-1.3.4-24.4.7-30.4.9-3.3.1-5.2-1.2-5.7-3.6l.2-1.5zm34.2-1.2v-.8c.1-5.6.5-27.1.9-28.3v-.3l-3.5-.5-25 .3H55v.8c.4 1.2.8 22.7.9 28.3v.4l2.5.3 24.9-.2zm149.7 6.7l31.5-.4h2.4c2.2 0 3.4-.4 3.4-1.3l.2-.7c.8-1.2 1.1-2.4 1.1-3.7.4-1.2.8-23.4.9-29.1.1-2.3-.7-3.9-2.1-4.8-.3-.3-.8-.5-1.6-.6h-4c-8.9.1-36.3-3.9-36.3 4.7-.4 1.3-.8 24.4-.9 30.4-.1 3.3 1.3 5.2 3.9 5.7l1.5-.2zm1.2-34.3h.8c6-.1 29.1-.5 30.4-.9h.3l.5 3.5-.3 25v.7h-.8c-1.3-.4-24.4-.8-30.4-.9h-.4l-.3-2.5.2-24.9zm-8.1-2.5l-.7 5.1.3 24.2v2.2c0 2.1-.4 3.1-1.3 3.1l-.7.2c-1.2.7-2.4 1.1-3.7 1.1-1.2.4-23.4.7-29.1.9-2.3 0-3.9-.6-4.8-2-.3-.2-.5-.7-.6-1.5v-3.7c0-3.7-1.9-33.1 1.6-33.1 1-.5 2.1-.7 3.1-.7 1.3-.4 24.4-.7 30.4-.9 3.3-.1 5.2 1.2 5.7 3.6l-.2 1.5zm-34.3 1.2v.8c-.1 5.6-.5 27.1-.9 28.3v.3l3.5.5 25-.3h.7v-.8c-.4-1.2-.8-22.7-.9-28.3v-.4l-2.5-.3-24.9.2zm125.3-1.6l-.7 5.1.3 24.2v2.2c0 2.1-.4 3.1-1.3 3.1l-.7.2c-1.2.7-2.4 1.1-3.7 1.1-1.2.4-23.4.7-29.1.9-2.3 0-3.9-.6-4.8-2-.3-.2-.5-.7-.6-1.5v-3.7c0-3.7-1.9-33.1 1.6-33.1 1-.5 2-.7 3.1-.7 1.3-.4 24.4-.7 30.4-.9 3.3-.1 5.2 1.2 5.7 3.6l-.2 1.5zm-34.3 1.2v.8c-.1 5.6-.5 27.1-.9 28.3v.3l3.5.5 25-.3h.7v-.8c-.4-1.2-.8-22.7-.9-28.3v-.4l-2.5-.3-24.9.2z" fill-rule="evenodd" clip-rule="evenodd"/><path d="M322.9 205.7l5.4.7 26-.3h2.4c2.2 0 3.4.4 3.4 1.3l.2.7c.8 1.2 1.1 2.4 1.1 3.7.4 1.2.8 23.4.9 29.1.1 2.3-.7 3.9-2.1 4.8-.3.3-.8.5-1.6.6h-4l-26-.3-5.6 1h-.2l-1.7.5c-.5-.5-.9-1-1.2-1.6-.2-.2-.4-.4-.6-.7v-.3c-.5-1-.7-2-.7-3.1-.4-1.3-.8-24.4-.9-30.4-.1-3.3 1.3-5.2 3.9-5.7h1.3zm1.2 34.2h.8c6 .1 29.1.5 30.4.9h.3l.5-3.5-.3-25v-.7h-.8c-1.3.4-24.4.8-30.4.9h-.4l-.3 2.5.2 24.9z" fill-rule="evenodd" clip-rule="evenodd" fill="#004e9d"/><path class="st1" d="M326.2 220.7c1.5-4 3.4-6.4.1-11.2-2.3-3.4-6.2-6.6-9.7-7.6-18.4-5-25.4 25.1-7.9 28.9 6.8 1.5 14.9-3.4 17.5-10.1z"/><path class="st4" d="M311.2 231.9c-.9 0-1.8-.1-2.7-.3-5-1.1-8.5-4.3-9.9-9.1-1.8-5.9 0-13.2 4.3-17.7 3.7-3.8 8.6-5 13.9-3.6 4 1.1 8 4.7 10.1 7.9 3 4.5 1.9 7.1.6 10.2-.2.5-.5 1.1-.7 1.7-2.3 6.3-9.2 10.9-15.6 10.9zm1.4-29.8c-3.3 0-6.3 1.3-8.7 3.7-4 4.1-5.6 10.7-4 16.2 1.3 4.3 4.4 7.1 8.8 8.1 6.4 1.4 14.2-3.1 16.7-9.7.2-.6.5-1.2.7-1.7 1.3-3 2.1-5-.5-8.8-2.4-3.4-6.2-6.4-9.3-7.3-1.2-.3-2.4-.5-3.7-.5z"/><path class="st1" d="M330.1 233.2c-8-3.3-16.5 2-18.6 9.8-5.2 19.1 24.3 26.7 28.3 8.6 1.6-7.2-3.1-15.7-9.7-18.4z"/><path class="st4" d="M326.9 262.6c-4.5 0-9-1.8-12.3-4.9-4-3.9-5.3-9.2-3.8-14.9 1.1-4.2 4.2-7.9 8.1-9.9 3.7-1.8 7.7-1.9 11.5-.4 7 2.9 11.8 11.9 10.2 19.2-1.1 5.2-4.4 8.8-9.2 10.3-1.4.4-3 .6-4.5.6zm-1.8-29.7c-1.9 0-3.7.4-5.5 1.3-3.6 1.7-6.3 5.1-7.3 8.9-1.4 5.2-.2 10 3.4 13.5 3.9 3.8 10.2 5.4 15.3 3.9 4.2-1.3 7.1-4.5 8.1-9.1 1.5-6.7-2.9-14.9-9.3-17.5-1.5-.7-3.1-1-4.7-1z"/><path class="st1" d="M319.8 220.2c-1.5 4-3.4 6.4-.1 11.2 2.3 3.4 6.2 6.6 9.7 7.6 18.4 5 25.4-25.1 7.9-28.9-6.9-1.5-15 3.4-17.5 10.1z"/><path class="st4" d="M333.3 240.3c-1.4 0-2.8-.2-4.2-.6-4-1.1-8-4.7-10.1-7.9-3-4.5-1.9-7.1-.6-10.2.2-.5.5-1.1.7-1.7 2.7-7.2 11.3-12.1 18.4-10.6 5 1.1 8.5 4.3 9.9 9.1 1.8 5.9 0 13.2-4.3 17.7-2.7 2.8-6.1 4.2-9.8 4.2zm1.4-29.7c-5.8 0-12.1 4.2-14.2 9.9-.2.6-.5 1.2-.7 1.7-1.3 3-2.1 5 .5 8.8 2.4 3.4 6.2 6.4 9.3 7.3 4.8 1.3 9.2.2 12.4-3.2 4-4.1 5.6-10.7 4-16.2-1.3-4.3-4.4-7.1-8.8-8.1-.9-.1-1.7-.2-2.5-.2z"/><path class="st1" d="M329.3 215.2c3.7 1.5 5.8 3.4 10.3.2 3.1-2.2 6.2-6 7.1-9.4 4.8-17.9-22.9-25.1-26.6-8.1-1.4 6.8 3 14.8 9.2 17.3z"/><path class="st4" d="M335.1 217.9c-1.6 0-3-.6-4.6-1.4-.5-.2-1-.5-1.5-.7-6.6-2.7-11.1-11.2-9.6-18.1 1.1-4.9 4.1-8.3 8.6-9.7 5.3-1.6 11.7 0 15.8 4 3.8 3.7 5 8.7 3.6 14.1-.9 3.4-3.9 7.3-7.4 9.8-1.9 1.6-3.5 2-4.9 2zm-2.8-28.8c-1.3 0-2.6.2-3.8.5-4 1.2-6.7 4.2-7.6 8.6-1.4 6.2 2.7 13.9 8.7 16.4.6.2 1.1.5 1.6.7 2.7 1.3 4.6 2.1 8-.4 3.2-2.3 6-6 6.8-9 1.3-4.9.2-9.3-3.2-12.6-2.7-2.7-6.7-4.2-10.5-4.2z"/><path class="st1" d="M324.6 217.1c-8-3.3-16.5 2-18.6 9.8-5.2 19.1 24.3 26.7 28.3 8.6 1.6-7.1-3.1-15.6-9.7-18.4z"/><path class="st4" d="M321.4 246.6c-4.5 0-9-1.8-12.3-4.9-4-3.9-5.3-9.2-3.8-14.9 1.1-4.2 4.2-7.9 8.1-9.9 3.7-1.8 7.7-1.9 11.5-.4 7 2.9 11.8 11.9 10.2 19.2-1.1 5.2-4.4 8.8-9.2 10.3-1.4.4-3 .6-4.5.6zm-1.8-29.7c-1.9 0-3.7.4-5.5 1.3-3.6 1.7-6.3 5.1-7.3 8.9-1.4 5.2-.2 10 3.4 13.5 3.9 3.8 10.2 5.4 15.3 3.9 4.2-1.3 7.1-4.5 8.1-9.1 1.5-6.7-2.9-14.9-9.3-17.5-1.5-.7-3.1-1-4.7-1z"/><path class="st1" d="M347.3 234.7c-8-3.3-16.5 2-18.6 9.8-5.2 19.1 24.3 26.7 28.3 8.6 1.6-7.2-3.1-15.7-9.7-18.4z"/><path class="st4" d="M344.1 264.1c-4.5 0-9-1.8-12.3-4.9-4-3.9-5.3-9.2-3.8-14.9 1.1-4.2 4.2-7.9 8.1-9.9 3.7-1.8 7.7-1.9 11.5-.4 7 2.9 11.8 11.9 10.2 19.2-1.1 5.2-4.4 8.8-9.2 10.3-1.5.4-3 .6-4.5.6zm-1.8-29.7c-1.9 0-3.7.4-5.5 1.3-3.6 1.7-6.3 5.1-7.3 8.9-1.4 5.2-.2 10 3.4 13.5 3.9 3.8 10.2 5.4 15.3 3.9 4.2-1.3 7.1-4.5 8.1-9.1 1.5-6.7-2.9-14.9-9.3-17.5-1.5-.7-3.1-1-4.7-1z"/><path class="st1" d="M351.4 239.4c8 3.3 16.5-2 18.6-9.8 5.2-19.1-24.3-26.7-28.3-8.6-1.6 7.2 3.1 15.7 9.7 18.4z"/><path class="st4" d="M356.4 241.1c-1.8 0-3.6-.4-5.3-1.1-7-2.9-11.8-11.9-10.2-19.2 1.1-5.2 4.4-8.8 9.2-10.3 5.7-1.7 12.4 0 16.8 4.3 4 3.9 5.3 9.2 3.8 14.9-1.1 4.2-4.2 7.9-8.1 9.9-2 1.1-4.1 1.5-6.2 1.5zm-1.8-29.6c-1.4 0-2.8.2-4 .6-4.2 1.3-7.1 4.5-8.1 9.1-1.5 6.7 2.9 14.9 9.3 17.5 3.3 1.4 7 1.3 10.2-.4 3.6-1.7 6.3-5.1 7.3-8.9 1.4-5.2.2-10-3.4-13.5-3-2.8-7.2-4.4-11.3-4.4z"/><path class="st1" d="M343.8 199.8c-3.7-1.5-5.8-3.4-10.3-.2-3.1 2.2-6.2 6-7.1 9.4-4.8 17.9 22.9 25.1 26.6 8.1 1.4-6.8-3-14.8-9.2-17.3z"/><path class="st4" d="M340.7 227.5c-4.2 0-8.5-1.7-11.5-4.6-3.8-3.7-5-8.7-3.6-14.1.9-3.4 3.9-7.3 7.4-9.8 4.2-3 6.7-1.8 9.5-.5.5.2 1 .5 1.5.7 6.6 2.7 11.1 11.2 9.6 18.1-1.1 4.9-4.1 8.3-8.6 9.7-1.3.3-2.8.5-4.3.5zm-2.7-28.9c-1.2 0-2.4.4-4.1 1.6-3.2 2.3-6 6-6.8 9-1.3 4.9-.2 9.3 3.2 12.6 3.7 3.6 9.6 5.1 14.4 3.7 4-1.2 6.7-4.2 7.6-8.6 1.4-6.2-2.7-13.9-8.7-16.4-.6-.2-1.1-.5-1.6-.7-1.5-.7-2.7-1.2-4-1.2z"/><path class="st1" d="M358.1 227.5c-8-3.3-16.5 2-18.6 9.8-5.2 19.1 24.3 26.7 28.3 8.6 1.6-7.2-3.1-15.7-9.7-18.4z"/><path class="st4" d="M354.9 256.9c-4.5 0-9-1.8-12.3-4.9-4-3.9-5.3-9.2-3.8-14.9 1.1-4.2 4.2-7.9 8.1-9.9 3.7-1.8 7.7-1.9 11.5-.4 7 2.9 11.8 11.9 10.2 19.2-1.1 5.2-4.4 8.8-9.2 10.3-1.5.4-3 .6-4.5.6zm-1.8-29.7c-1.9 0-3.7.4-5.5 1.3-3.6 1.7-6.3 5.1-7.3 8.9-1.4 5.2-.2 10 3.4 13.5 3.9 3.8 10.2 5.4 15.3 3.9 4.2-1.3 7.1-4.5 8.1-9.1 1.5-6.7-2.9-14.9-9.3-17.5-1.5-.7-3.1-1-4.7-1z"/><path class="st1" d="M347 219.4c3.7 1.5 5.8 3.4 10.3.2 3.1-2.2 6.2-6 7.1-9.4 4.8-17.9-22.9-25.1-26.6-8.1-1.4 6.7 3 14.7 9.2 17.3z"/><path class="st4" d="M352.8 222.1c-1.6 0-3-.6-4.6-1.4-.5-.2-1-.5-1.5-.7-6.6-2.7-11.1-11.2-9.6-18.1 1.1-4.9 4.1-8.3 8.6-9.7 5.3-1.6 11.7 0 15.8 4 3.8 3.7 5 8.7 3.6 14.1-.9 3.4-3.9 7.3-7.4 9.8-1.9 1.5-3.5 2-4.9 2zm-2.8-28.9c-1.3 0-2.6.2-3.8.5-4 1.2-6.7 4.2-7.6 8.6-1.4 6.2 2.7 13.9 8.7 16.4.6.2 1.1.5 1.6.7 2.7 1.3 4.6 2.1 8-.4 3.2-2.3 6-6 6.8-9 1.3-4.9.2-9.3-3.2-12.6-2.7-2.7-6.7-4.2-10.5-4.2z"/><path class="st5" d="M274.8 274.4c-1.4 1.2-5 4.9-3.1 6.8.5.5 1.8 1 2.4 1 3.8-.2 2.4-4.8 9.2-6.5 1.5-.4 3.8.5 4.9-1.8.9-1.9-1.1-3.3-2.8-3.5-3.3-.2-8 1.8-10.6 4zm-8.2-5.3c-2.6 4.3 3.9 6.3 5.7 3.3 1-1.6.6-3.3-1.1-4.3-1.3-1-3.8-.4-4.6 1zm8.4-6.6c-.5.7-1 1.1-.5 2.2.4.8 1.1 1.6 1.9 2 4 1.9 6.8-3.9 3-5.4-1.5-.6-3.6 0-4.4 1.2zm50.1 8.5c-3.2 1.5-8.9 6.9-9.5 7.5-1.3 1.1-3.3.8-3.7-.1-1.6-3.2 6.6-9.2 10-11.3 3.3-2 6-2.8 7.4-.1 1.3 2.5 3 12.8 1.1 14.9-1.2 1.3-3.1 2.2-4.2 1.8-1.1-.4-1-11-1.1-12.7z"/><path class="st5" d="M286.2 281.8c7.4 8.2 21.5 14.9 33.9-6 2.4-2.5 5.8-1.2 3.7 3.1-6.9 11.5-13.5 15.3-21.8 15-7.2-.2-15.2-3.2-19.3-9.6-1.7-3 1.6-4.6 3.5-2.5z"/></svg>